HIERARCHY
ROOT Hips
{
	OFFSET -14.64140 90.27770 -84.91600
	CHANNELS 6 Xposition Yposition Zposition Zrotation Xrotation Yrotation
	JOINT Spine
	{
		OFFSET 0.00000 13.20850 -1.60436
		CHANNELS 3 Zrotation Xrotation Yrotation
		JOINT Spine1
		{
			OFFSET 0.00000 8.61716 0.00000
			CHANNELS 3 Zrotation Xrotation Yrotation
			JOINT Spine2
			{
				OFFSET 0.00000 8.61717 0.00000
				CHANNELS 3 Zrotation Xrotation Yrotation
				JOINT Spine3
				{
					OFFSET 0.00000 8.61717 0.00000
					CHANNELS 3 Zrotation Xrotation Yrotation
					JOINT Neck
					{
						OFFSET 0.00000 11.07920 1.10792
						CHANNELS 3 Zrotation Xrotation Yrotation
						JOINT Neck1
						{
							OFFSET 0.00000 7.08032 0.00000
							CHANNELS 3 Zrotation Xrotation Yrotation
							JOINT Head
							{
								OFFSET 0.00000 7.08031 0.00000
								CHANNELS 3 Zrotation Xrotation Yrotation
								End site
								{
									OFFSET 0.00000 0.00000 0.00000
								}
							}
						}
					}
					JOINT RightShoulder
					{
						OFFSET -0.01000 7.91373 5.19711
						CHANNELS 3 Zrotation Xrotation Yrotation
						JOINT RightArm
						{
							OFFSET -18.41580 0.00000 0.00000
							CHANNELS 3 Zrotation Xrotation Yrotation
							JOINT RightForeArm
							{
								OFFSET -29.11090 0.00000 0.00000
								CHANNELS 3 Zrotation Xrotation Yrotation
								JOINT RightHand
								{
									OFFSET -24.65040 0.00000 0.00000
									CHANNELS 3 Zrotation Xrotation Yrotation
									JOINT RightHandThumb1
									{
										OFFSET -5.35114 -0.85590 3.97906
										CHANNELS 3 Zrotation Xrotation Yrotation
										JOINT RightHandThumb2
										{
											OFFSET -4.52789 0.00000 0.00000
											CHANNELS 3 Zrotation Xrotation Yrotation
											JOINT RightHandThumb3
											{
												OFFSET -2.46976 0.00000 0.00000
												CHANNELS 3 Zrotation Xrotation Yrotation
												End site
												{
													OFFSET 0.00000 0.00000 0.00000
												}
											}
										}
									}
									JOINT RightHandIndex1
									{
										OFFSET -14.26970 0.00000 2.88139
										CHANNELS 3 Zrotation Xrotation Yrotation
										JOINT RightHandIndex2
										{
											OFFSET -5.48836 0.00000 0.00000
											CHANNELS 3 Zrotation Xrotation Yrotation
											JOINT RightHandIndex3
											{
												OFFSET -3.01859 0.00000 0.00000
												CHANNELS 3 Zrotation Xrotation Yrotation
												End site
												{
													OFFSET 0.00000 0.00000 0.00000
												}
											}
										}
									}
									JOINT RightHandMiddle1
									{
										OFFSET -14.26970 0.00000 -0.09147
										CHANNELS 3 Zrotation Xrotation Yrotation
										JOINT RightHandMiddle2
										{
											OFFSET -6.17441 0.00000 0.00000
											CHANNELS 3 Zrotation Xrotation Yrotation
											JOINT RightHandMiddle3
											{
												OFFSET -3.56743 0.00000 0.00000
												CHANNELS 3 Zrotation Xrotation Yrotation
												End site
												{
													OFFSET 0.00000 0.00000 0.00000
												}
											}
										}
									}
									JOINT RightHandRing1
									{
										OFFSET -12.69180 0.00000 -3.06433
										CHANNELS 3 Zrotation Xrotation Yrotation
										JOINT RightHandRing2
										{
											OFFSET -5.62556 0.00000 0.00000
											CHANNELS 3 Zrotation Xrotation Yrotation
											JOINT RightHandRing3
											{
												OFFSET -3.56744 0.00000 0.00000
												CHANNELS 3 Zrotation Xrotation Yrotation
												End site
												{
													OFFSET 0.00000 0.00000 0.00000
												}
											}
										}
									}
									JOINT RightHandPinky1
									{
										OFFSET -11.11390 0.00000 -6.03719
										CHANNELS 3 Zrotation Xrotation Yrotation
										JOINT RightHandPinky2
										{
											OFFSET -4.52789 0.00000 0.00000
											CHANNELS 3 Zrotation Xrotation Yrotation
											JOINT RightHandPinky3
											{
												OFFSET -2.46976 0.00000 0.00000
												CHANNELS 3 Zrotation Xrotation Yrotation
												End site
												{
													OFFSET 0.00000 0.00000 0.00000
												}
											}
										}
									}
								}
							}
						}
					}
					JOINT LeftShoulder
					{
						OFFSET 0.01000 7.91373 5.19711
						CHANNELS 3 Zrotation Xrotation Yrotation
						JOINT LeftArm
						{
							OFFSET 18.41580 0.00000 0.00000
							CHANNELS 3 Zrotation Xrotation Yrotation
							JOINT LeftForeArm
							{
								OFFSET 29.11090 0.00000 0.00000
								CHANNELS 3 Zrotation Xrotation Yrotation
								JOINT LeftHand
								{
									OFFSET 24.65040 0.00000 0.00000
									CHANNELS 3 Zrotation Xrotation Yrotation
									JOINT LeftHandThumb1
									{
										OFFSET 5.35114 -0.85590 3.97906
										CHANNELS 3 Zrotation Xrotation Yrotation
										JOINT LeftHandThumb2
										{
											OFFSET 4.52789 0.00000 0.00000
											CHANNELS 3 Zrotation Xrotation Yrotation
											JOINT LeftHandThumb3
											{
												OFFSET 2.46977 0.00000 0.00000
												CHANNELS 3 Zrotation Xrotation Yrotation
												End site
												{
													OFFSET 0.00000 0.00000 0.00000
												}
											}
										}
									}
									JOINT LeftHandIndex1
									{
										OFFSET 14.26970 0.00000 2.88139
										CHANNELS 3 Zrotation Xrotation Yrotation
										JOINT LeftHandIndex2
										{
											OFFSET 5.48836 0.00000 0.00000
											CHANNELS 3 Zrotation Xrotation Yrotation
											JOINT LeftHandIndex3
											{
												OFFSET 3.01859 0.00000 0.00000
												CHANNELS 3 Zrotation Xrotation Yrotation
												End site
												{
													OFFSET 0.00000 0.00000 0.00000
												}
											}
										}
									}
									JOINT LeftHandMiddle1
									{
										OFFSET 14.26970 0.00000 -0.09147
										CHANNELS 3 Zrotation Xrotation Yrotation
										JOINT LeftHandMiddle2
										{
											OFFSET 6.17440 0.00000 0.00000
											CHANNELS 3 Zrotation Xrotation Yrotation
											JOINT LeftHandMiddle3
											{
												OFFSET 3.56744 0.00000 0.00000
												CHANNELS 3 Zrotation Xrotation Yrotation
												End site
												{
													OFFSET 0.00000 0.00000 0.00000
												}
											}
										}
									}
									JOINT LeftHandRing1
									{
										OFFSET 12.69180 0.00000 -3.06433
										CHANNELS 3 Zrotation Xrotation Yrotation
										JOINT LeftHandRing2
										{
											OFFSET 5.62556 0.00000 0.00000
											CHANNELS 3 Zrotation Xrotation Yrotation
											JOINT LeftHandRing3
											{
												OFFSET 3.56744 0.00000 0.00000
												CHANNELS 3 Zrotation Xrotation Yrotation
												End site
												{
													OFFSET 0.00000 0.00000 0.00000
												}
											}
										}
									}
									JOINT LeftHandPinky1
									{
										OFFSET 11.11390 0.00000 -6.03719
										CHANNELS 3 Zrotation Xrotation Yrotation
										JOINT LeftHandPinky2
										{
											OFFSET 4.52789 0.00000 0.00000
											CHANNELS 3 Zrotation Xrotation Yrotation
											JOINT LeftHandPinky3
											{
												OFFSET 2.46976 0.00000 0.00000
												CHANNELS 3 Zrotation Xrotation Yrotation
												End site
												{
													OFFSET 0.00000 0.00000 0.00000
												}
											}
										}
									}
								}
							}
						}
					}
					JOINT pCube4
					{
						OFFSET 0.00000 10.91090 1.10792
						CHANNELS 3 Zrotation Xrotation Yrotation
						End site
						{
							OFFSET 0.00000 0.00000 0.00000
						}
					}
				}
			}
		}
	}
	JOINT RightUpLeg
	{
		OFFSET -9.98441 0.00000 0.00000
		CHANNELS 3 Zrotation Xrotation Yrotation
		JOINT RightLeg
		{
			OFFSET 0.00000 -42.11790 0.00000
			CHANNELS 3 Zrotation Xrotation Yrotation
			JOINT RightFoot
			{
				OFFSET 0.00000 -45.00020 -0.00001
				CHANNELS 3 Zrotation Xrotation Yrotation
				JOINT RightForeFoot
				{
					OFFSET 0.00000 -3.74820 0.00000
					CHANNELS 3 Zrotation Xrotation Yrotation
					JOINT RightToeBase
					{
						OFFSET 0.00000 0.06325 14.43120
						CHANNELS 3 Zrotation Xrotation Yrotation
						End site
						{
							OFFSET 0.00000 0.00000 0.00000
						}
					}
				}
			}
		}
	}
	JOINT LeftUpLeg
	{
		OFFSET 9.98441 0.00000 0.00000
		CHANNELS 3 Zrotation Xrotation Yrotation
		JOINT LeftLeg
		{
			OFFSET 0.00000 -42.11800 0.00000
			CHANNELS 3 Zrotation Xrotation Yrotation
			JOINT LeftFoot
			{
				OFFSET 0.00000 -45.00070 0.00000
				CHANNELS 3 Zrotation Xrotation Yrotation
				JOINT LeftForeFoot
				{
					OFFSET 0.00000 -3.74824 0.00000
					CHANNELS 3 Zrotation Xrotation Yrotation
					JOINT LeftToeBase
					{
						OFFSET 0.00000 0.06325 14.43110
						CHANNELS 3 Zrotation Xrotation Yrotation
						End site
						{
							OFFSET 0.00000 0.00000 0.00000
						}
					}
				}
			}
		}
	}
}
MOTION
Frames: 4
Frame Time: 0.050000
-0.016194022193035368 0.02252331773683829 0.009316031804736157 0.005836239110154484 0.03154285668194155 -0.005451696346144621 -2.26995908428439 1.0174341573270855 -0.8858654385925305 -1.1120842982737724 3.931530145146858 0.3472381374884985 -1.1140429042140194 -1.9224562179619744 -2.008104031912239 -0.012563336559852568 0.5414365652523216 -0.8648351747569567 -1.0063613192279972 13.470045621184065 2.6381467236418503 0.007990309111883448 -0.12607952138124262 5.597060825974502 -0.615666223650926 -15.360504335765441 0.4413516080720953 -4.984136758910828 1.690275675609652 -16.02113162441826 73.06120620562517 16.606332212801 -4.703040576408883 4.888544561831869 -1.962277418335641 43.08031695892486 20.174804780225543 -0.12049620160044094 -2.562722912902064 4.5342583833131815 -0.08492179696460919 -1.5879224916886667 -0.004779196416102854 -0.04206090481017635 -56.18850782522231 0.023060478091709403 0.01721908386695403 -56.18801164677893 -38.73555701216838 -0.03417608084561861 -0.022525858439875326 -0.046056912376766346 -0.04988923986284006 -0.046115443191447156 0.03720534234413214 0.03344871108012268 -0.014577072111881629 -36.73974957057388 0.02759224279268573 0.03215379293780983 -0.03115735599076193 -0.011980377219229243 0.03912695818479871 -0.02537833849195411 -0.009539241320796678 0.04498846563096058 -19.766845789186405 0.0015367901552119103 0.037197720265042325 0.012059393798462109 -0.02757841056438898 -0.040938493503110185 0.027636997985576145 -0.01485136000497309 -0.04218969363636692 24.093733230847725 0.004576981876733559 -0.03621532012106592 28.886101573862664 0.002690724793358453 0.002480993814048638 28.86857690619229 0.028492064945301356 0.03035616949764726 8.214174741055034 1.7018406940480055 14.153579139315488 -69.0634357195687 18.484645763894797 -10.800565321081187 -1.662526375652133 -17.703990903844367 -61.92262076315717 -6.508577983972086 -0.5182996607497606 1.4557546826487973 -0.4571475993567463 0.018149662608424273 -8.102896574795631 0.0024943671262899337 0.0235892743444619 44.539510688929205 -0.037071460561432956 0.029439193769476325 44.59717249787777 12.439742275232677 -0.0045579862067278544 -0.026489728071061338 -0.015920054994122593 -0.0071610918949468316 0.0009385127225163042 0.016197340855506445 0.04487478085461998 -0.0011527154522137217 11.071921122615038 0.03658796604749592 0.010654350508307155 0.024530388712732575 0.013901764849776654 -0.0202598413730898 -0.005658279543050027 0.007854713622105526 -0.03632633427110397 4.750914634771116 0.03376538396879624 0.0027561949683851915 0.039236094020530306 0.04408485546731154 0.019086296726857098 0.04814665464218027 -0.012426734667778288 0.025219673682041303 -5.606398226339634 0.02676236494476326 0.013590803412913346 -6.713448232244899 0.037766700542437165 0.013945545238435338 -6.7158499317729685 0.04041941105107197 0.0005135041947138866 -0.046217640790524026 -0.003431907926557802 0.026124656225961242 8.070081400088258 3.5097529447915354 -19.23652443117035 -0.027073767971019853 10.437611272024915 0.03910169290642037 -5.629654915227988 -15.707229731043734 3.1907210869104476 0.023790831934144767 -0.025978928366067085 -0.04837803712178375 0.03031655840517957 4.718950268518118 0.01732251350835359 12.44993671471901 -8.258760371470402 6.8700829028386545 -0.017060462544379422 46.37365302254591 -0.02340011153340094 -4.317113682505846 -14.779491512429976 -3.8510394797212646 0.008220941631041244 0.02192448335095976 -0.015689197789109002 0.036047301444143524 -10.758962272254784 0.04656898757118821 
-0.006265167314587207 -0.02569076753107487 0.0004179127572077489 -0.00902301454400664 -0.0333150398345825 -0.029574275070533243 -2.2449378929217065 1.0861706219665521 -0.8275859374141572 -1.136139427555996 3.9305079714745994 0.41883915991069415 -1.1284146637936099 -1.9017201630411402 -1.8435166896027415 -0.03240624353809163 0.5347798779772067 -0.8878332014230826 -1.1432602181440128 13.240479579549431 2.900784138754748 0.01662199938621217 -0.2601736930449135 6.104942077967383 -0.7658754167983773 -15.509557676358586 0.5309962804470388 -4.64882021391413 1.6381392931086702 -16.083277081619862 73.12789203252964 17.231074557263284 -5.609833834250149 5.246449612685011 -2.0507002113594663 42.35076516099451 20.245523942520226 -0.08779570700252914 -2.64617560712601 4.535001248867431 -0.1392814767582828 -1.6117443668053213 0.020422649064957603 -2.7377394627450366e-05 -56.23452977446211 0.0017404763015172295 -0.016664047037603293 -56.2665279246604 -38.80338863459287 0.00044169106931131414 0.021728562255653325 0.016056275055157776 -0.03215544343572303 0.003196594002824614 0.022351755755418267 -0.025727095898186038 0.029401571293748048 -36.709361613118865 0.025090846304158993 -0.01981835896980428 0.013517516753059799 -0.012920292877846368 0.0034423368535740793 0.020053258172790668 -0.02474026179434604 0.04014895456929227 -19.748142596823435 -0.011756670822102092 0.049407524641325126 0.04244796837910998 0.04133152494758734 -0.04074861248136973 0.020832259334381608 -0.011376147329492724 0.042228740796921335 24.073298266308363 0.0481411319164577 0.0061241370432323205 28.85890718143939 -0.04793351502640415 -0.010435540936915738 28.83845066922595 -0.023341076962282763 0.01633194655780956 7.9251948389477755 1.640366052385663 14.366018964712383 -70.2088374623476 19.36459118840752 -8.784291301064709 -2.0290749534339705 -17.33484799656651 -61.881154079048194 -7.140572869297539 -0.6928762878957467 1.5449208746671301 -0.5061598965138336 0.06672240760572642 -8.121972018925463 0.02897772395415235 0.035511750140730595 44.55820557093661 -0.0242130642418707 0.03185686474626069 44.568783160843665 12.484062682612494 0.043586756660535644 0.0004324486575105618 0.0018205042464282425 0.0120618760014611 0.038181700540648976 0.04977426368585455 -0.015867526120218817 -0.016402092451208772 11.10450821495302 -0.009071593933915151 -0.013232524318167611 0.024321705450047953 0.03511885353115691 0.04263838626189475 -0.027410224873386846 0.0430765021807248 -0.0065534414085105 4.763003670954663 0.01643923857042474 0.027009525272323576 0.00520980427631224 -0.019106334780249628 -0.03598583378108763 0.0036444960902431473 0.0362020342072829 -0.005423936794054347 -5.633488213149037 -0.013853513710236555 0.029655210061796028 -6.765230364442427 -0.01575158795672523 0.0426823073283567 -6.711650700117144 0.031660851437895834 0.04846266537689978 -0.019879921731299516 0.018289601184675163 0.00968626014382968 8.078664193454765 3.4757152009573082 -19.254836194952414 0.008785258853029741 10.404188053336767 -0.00906336657976901 -5.584897512990681 -15.663342312767591 3.228915950014224 -0.03122504394971123 0.03240664965760226 0.024701667178505204 0.02008389578911421 4.713986504497791 -0.0013843519313293266 12.441200772248301 -8.226926585565069 6.872572562860753 -0.013771041268048782 46.42477677916115 0.026213999024589353 -4.323928565894588 -14.769769425257383 -3.8181648174965512 -0.04205814115558347 -0.014196602253447476 0.008784186335473633 -0.042226565359555955 -10.784732355140408 0.043065425243937416 
-0.040852891974912625 0.0042717668088551024 -0.0358937972809426 0.049234602314982424 -0.034864999716309415 0.0028108971102559243 -2.159367652125995 1.0486638602454177 -0.8402505978917268 -1.1179585427932945 3.9031069111656183 0.36694352187006596 -1.137795538528502 -1.8287925144227108 -1.7650055881067297 -0.09106962150963607 0.5281744979891126 -0.8517641635856682 -1.176618707208129 13.139372412922615 3.0346107753777303 -0.0772893260892461 -0.33154883696526966 6.40579451623786 -0.9025885230165149 -15.58395110304242 0.5467578817497566 -4.468153516964245 1.6086915484218334 -16.107135132947302 73.10048701268302 17.94404452004066 -6.337210184853479 4.915078370536248 -2.1046326523506544 41.74005655341348 20.120181121026913 -0.06701513263800306 -2.77108169763402 4.499873302179456 -0.15457176687564594 -1.5643793683621077 0.04606610907271074 -0.004958035376374133 -56.28124537999695 0.0072744415910514565 0.015072992991199153 -56.24093072024273 -38.791938480579844 0.00783616412178131 0.037983460624601284 -0.013644426217621023 0.013909609966034745 0.014671454719599407 -0.017004556189109284 0.022021949677825104 0.006612088371551691 -36.68364088832911 -0.02933568299508559 -0.02912725215248313 0.03800684277239546 -0.018709264673416486 -0.03133625434986137 0.029324265351701677 -0.003005695895338843 -0.02945884164081919 -19.715225058287178 0.010136544297310137 0.031345663599795265 0.011889104349875518 0.017463871536745515 -0.006689795269246882 0.04405586006447102 -0.0003136829208186583 0.045992760944445446 24.044061033847335 -0.025367842881602192 -0.005267785328764745 28.85627962372155 -0.015221991025977722 -0.04028761911081642 28.843367179576735 0.026389264446860385 0.003540334527598698 7.864152559015022 1.634664026976009 14.411034338459519 -70.38096038409499 19.692386715417353 -8.413030976194085 -0.14772989463167474 -18.003862133351085 -64.35750603113988 -6.792712453925735 -1.1082421562255926 1.6174493141376778 -0.443565117004584 0.053379582886554255 -8.07752010967063 0.04881104883952906 0.023568181783286693 44.58346524876943 -0.00818381073511003 0.014804635028928464 44.546331326061086 12.453915076952834 0.0017535410849243507 0.021871877149165362 0.03876047164417077 -0.02465857808114319 -0.04578786385385782 -0.012910924657745732 -0.0010424979252797496 0.005218955186602155 11.069510372295502 0.02589017189126832 0.010082719107439256 -0.02626466782370017 0.01058761774638327 -0.0006580694212307599 -0.018618178194953247 -0.009156231012469799 0.030617511719126037 4.783963510535904 0.025025351369956986 0.04345115180470294 -0.024277251069553665 0.009160939834531593 0.017428581908821354 0.0019452991884853685 0.04983231223724355 0.0010963578527629278 -5.642998081505721 -0.02632235437459861 -0.026845361795511433 -6.730482242333606 0.04330335292718353 0.021717591359040465 -6.732111807456278 -0.030143864533624044 -0.02981534673783229 -0.008808449574223602 0.03683502266941365 -0.03233774596817968 8.075946361909983 3.488240500262514 -19.225208174086124 0.02008374915957219 10.366896738969384 -0.009843887309455273 -5.619612964204543 -15.617286540005786 3.1718244481154247 0.036766022824298514 0.019286847332264028 0.04763436221401472 0.002242530619445569 4.746116854483974 0.04319044784659371 12.458377375146709 -8.225230677461507 6.90034188808623 -0.04323137523045641 46.41210722195112 0.02472597087850058 -4.304929874568852 -14.774733691651397 -3.8538404787776885 -0.010362103976130153 -0.01910095651959386 -0.03938109566189454 -0.019257768406287328 -10.773843747673663 0.0042768237667168045 
0.02548574651919512 -0.012456003679142383 -0.010869480644523368 0.04114934295019828 0.036259114207485926 -0.047414260882499046 -2.115445774909866 1.1265990083101785 -0.8543287308652338 -1.1582272263047109 3.9463178553966993 0.40500351982198796 -1.1252437576150975 -1.8250705277065589 -1.8346520624903138 -0.07443472219905832 0.5343899739802412 -0.872361940427446 -1.2890952870368664 13.143208490839452 3.0713426558404557 -0.07986081264576098 -0.34913147465950367 6.515164069472263 -0.889548402656124 -15.669472265994056 0.5540881756602101 -4.391234797906534 1.5142026288521482 -16.074673263447373 72.86219109034573 18.131332737600417 -6.414226436373327 5.26350855532478 -2.0070285326945783 42.2706923101764 20.085933531138078 -0.126039181183072 -2.9623215464464394 4.5606633201591364 -0.11794372778887016 -1.604411487474714 0.04165125527891949 0.01690663047158511 -56.22579398360428 0.009610089308357214 -0.028957421223332988 -56.20999860143569 -38.74920591957195 0.015562493544031763 -0.037115252447229755 0.008784138451185645 0.04049139591849272 0.017803510502722202 0.022553506971095927 0.01428432624023008 -0.001399003658186563 -36.699496909113456 -0.021044332100279693 0.01854673716632063 0.04117641123379522 -0.01658978305930369 -0.011113122235208776 -0.03581205370050042 0.03140566889234933 -0.0011988549855229875 -19.783646399921217 0.02743901178735198 0.04079396968145297 -0.020085205217143107 0.028113549571680475 -0.023175083525529484 0.010296455503935143 0.017537676503655737 -0.01786292938546579 24.03907944734189 -0.024454570384369486 0.02943688136766883 28.894160282253914 0.0041418997792916305 0.004795184833058391 28.82178418910434 0.030239690913524915 0.002342629496403032 7.925492282375547 1.6288698767732157 14.396829430544868 -70.12658441453983 19.54537890804823 -9.019812041027398 0.8752558871189746 -18.328175875352656 -67.45382777639445 -6.3326244269174925 -1.2425362639749757 1.4494977286120823 -0.4292055732488701 0.06195211307537043 -8.095732205127725 -0.00844634871271187 -0.02242856221772294 44.568522332219864 -0.03949004139186674 -0.008530300443336742 44.60562449097268 12.46907780886912 0.010994317296747219 0.011354869609875988 -8.584605640489409e-05 -0.026379738720609627 0.002277434250262425 -0.028879620227709697 0.031394796365123594 0.005669201295407811 11.095133292339806 0.012966580809457194 0.016536520817204806 0.02015101387292315 0.01698248110568181 -0.006593527926316941 0.02289200013336675 0.04218560775398482 -0.030136341813073 4.812644318944877 -0.04530480247213225 0.03324310502136961 -0.02072846390514193 0.029895200098565323 -0.007474399772630757 0.012881279373401201 -0.02436138566607335 -0.011925764404817367 -5.5606296885267215 0.007936294909295247 -0.02885068498093219 -6.697692894925383 0.012940531706664354 0.03009279668656942 -6.732682145496536 0.016898164072639686 0.0018786822039096058 0.015501610564894755 -0.03444302443795209 -0.038110593097958265 8.09442271441063 3.5341586699832273 -19.255905542409334 -0.0035462540739052786 10.404067611842242 -0.029177789402117366 -5.609064451763604 -15.66374636873241 3.200983382333803 -0.01968427201896514 -0.009752259497657127 0.04346631997451263 -0.002236978437657701 4.708396518920117 -0.04925332598359074 12.497502686409275 -8.269392119294599 6.8360315536858005 -0.009901707749375788 46.40325613282214 0.05056479241609035 -4.3390559091736 -14.73575649955421 -3.8232713936791893 0.011760353998526818 0.018681758576460573 0.03134586583785891 -0.0029314191105795583 -10.724908602588576 -0.010847907134243688 
